<svg width="80" height="44" xmlns="http://www.w3.org/2000/svg"><g fill-rule="nonzero" fill="none"><path d="M11.93 19.116l2.69-10.04 3.208.86c1.217.326 2.073.836 2.567 1.53.493.694.6 1.561.322 2.6-.29 1.08-.848 1.817-1.677 2.208-.828.391-1.865.42-3.11.086l-.914-.244-.957 3.57-2.129-.57zm3.553-4.745l.7.188c.656.175 1.18.177 1.574.006.395-.172.658-.505.79-1 .134-.498.097-.903-.112-1.214-.208-.311-.603-.545-1.185-.7l-.968-.26-.799 2.98zm5.114 7.067l2.057-7.677 1.586.425-.037 1.374.103.027a2.988 2.988 0 0 1 1.244-.782 2.463 2.463 0 0 1 1.428-.04c.284.076.514.16.69.251l-.684 1.922a2.484 2.484 0 0 0-.6-.234c-.668-.18-1.235-.147-1.7.096-.465.243-.78.674-.946 1.292L22.691 22l-2.094-.56zm6.933-2.197c.345-1.287.933-2.195 1.764-2.726.832-.53 1.815-.643 2.95-.339 1.086.29 1.848.826 2.286 1.606.44.78.512 1.715.22 2.804l-.272 1.017-4.951-1.327c-.137.601-.085 1.113.155 1.536.24.422.658.713 1.253.873.462.124.913.193 1.35.207.438.014.91-.024 1.415-.114l-.435 1.62a5.091 5.091 0 0 1-1.283.094c-.44-.022-.961-.113-1.56-.274-1.237-.331-2.111-.931-2.625-1.8-.513-.868-.602-1.928-.267-3.177zm2.419-.346l2.939.788c.13-.52.101-.956-.084-1.307-.186-.352-.5-.587-.945-.706-.444-.119-.83-.071-1.157.143-.327.214-.578.574-.753 1.082zm6.302-1.49l2.19.586.312 4.772a8.08 8.08 0 0 1-.113 1.655l.042.011c.14-.433.384-.93.73-1.49l2.648-3.978 2.191.587-4.982 6.893-2.15-.576-.868-8.46zm9.541.429c.183-.683.654-.922 1.414-.718.76.204 1.049.646.866 1.329-.087.325-.25.552-.488.682-.239.13-.548.144-.928.042-.76-.203-1.048-.649-.864-1.335zm-2.5 9.686l2.058-7.678 2.094.561-2.057 7.678-2.094-.561zm4.84-2.76c.344-1.286.932-2.194 1.764-2.725.831-.53 1.815-.643 2.95-.339 1.085.291 1.847.826 2.286 1.606.438.78.512 1.715.22 2.805l-.272 1.016-4.952-1.327c-.136.602-.084 1.113.156 1.536.24.422.657.713 1.252.873.463.124.913.193 1.35.207.438.014.91-.024 1.415-.114l-.434 1.62a5.091 5.091 0 0 1-1.284.095c-.44-.023-.96-.114-1.56-.275-1.236-.331-2.111-.931-2.624-1.8-.513-.868-.602-1.927-.267-3.177zm2.418-.345l2.94.788c.129-.52.1-.956-.085-1.307-.186-.352-.5-.587-.944-.706-.444-.119-.83-.071-1.157.143-.328.214-.579.575-.754 1.082zm6.44-1.454l2.087.56-.025 3.636c-.021.647-.102 1.526-.242 2.636l.04.011c.112-.343.34-.873.685-1.59l.266-.555 1.934-3.427 2.307.619-.087 3.922c-.008.105-.02.262-.033.469a27.793 27.793 0 0 1-.13 1.338c-.028.22-.056.396-.086.525l.041.011c.13-.318.324-.75.583-1.297.26-.547.439-.914.539-1.103l1.83-3.153 2.054.55-4.268 7.085-2.28-.61.129-2.844.112-3.606-.048-.013-3.03 5.702-2.252-.603-.126-8.263z" fill="#D9DDE0"/><path fill="#D8DDE0" d="M76.402 22.122l-4.787 17.865-31.734-8.503-.63 2.35 34.085 9.134L79.383 20.4l-34.085-9.133-.63 2.35zM8.442 3.912L3.655 21.777 35.39 30.28l-.63 2.35L.675 23.499 6.72.93l34.085 9.133-.63 2.351z"/></g></svg>